<svg width="176" height="176" viewBox="0 0 176 176" fill="none" xmlns="http://www.w3.org/2000/svg">
<path fill-rule="evenodd" clip-rule="evenodd" d="M176 4.72215C176 2.95561 173.877 2.05652 172.608 3.28567L160 15.5L147.471 1.62873C146.682 0.754736 145.312 0.748665 144.515 1.61563L131.749 15.5L118.456 1.53051C117.665 0.699163 116.338 0.702513 115.552 1.53785L102.4 15.5L89.4208 1.52941C88.6461 0.695575 87.3328 0.675383 86.5328 1.48501L72.6857 15.5L59.4352 1.51482C58.6526 0.688839 57.3395 0.681269 56.5475 1.49817L42.9714 15.5L30.4647 1.62505C29.6779 0.752129 28.3116 0.742525 27.5126 1.6043L14.6286 15.5001L3.45451 3.66036C2.2123 2.34416 0 3.22327 0 5.0331V160.5C0 168.784 6.71572 175.5 15 175.5H54C54 156.722 69.2223 141.5 88 141.5C106.778 141.5 122 156.722 122 175.5H161C169.284 175.5 176 168.784 176 160.5V4.72215ZM31.9385 105.732V68.7681C31.9385 66.273 33.9612 64.2502 36.4563 64.2502C38.9515 64.2502 40.9742 66.273 40.9742 68.7681V77.3667L47.2366 66.52C48.4841 64.3591 51.2472 63.6187 53.4081 64.8663C55.5689 66.1139 56.3093 68.877 55.0617 71.0378L45.5486 87.5151L54.7548 103.461C56.0023 105.621 55.262 108.385 53.1011 109.632C50.9403 110.88 48.1772 110.139 46.9296 107.978L40.9742 97.6634V105.732C40.9742 108.228 38.9515 110.25 36.4563 110.25C33.9612 110.25 31.9385 108.228 31.9385 105.732ZM100.916 66.956C102.635 65.2311 104.967 64.2621 107.398 64.2621H116.566C118.192 64.2621 119.773 64.6955 121.156 65.4985C122.535 64.7031 124.109 64.2739 125.726 64.2739H134.894C137.325 64.2739 139.657 65.243 141.376 66.9679C143.095 68.6927 144.061 71.0322 144.061 73.4716V105.663C144.061 108.203 142.009 110.262 139.477 110.262C136.946 110.262 134.894 108.203 134.894 105.663V73.4716H125.733V105.651C125.733 106.414 125.547 107.134 125.22 107.768C124.458 109.249 122.919 110.262 121.143 110.262C118.612 110.262 116.56 108.203 116.56 105.663V73.4716V73.4598H107.398V105.651C107.398 108.191 105.346 110.25 102.815 110.25C100.283 110.25 98.2313 108.191 98.2313 105.651V73.4598C98.2313 71.0204 99.197 68.6809 100.916 66.956ZM65.2078 68.78V105.744C65.2078 108.239 67.2305 110.262 69.7256 110.262C72.2208 110.262 74.2435 108.239 74.2435 105.744V97.6753L80.1989 107.99C81.4465 110.151 84.2095 110.892 86.3704 109.644C88.5313 108.396 89.2716 105.633 88.0241 103.473L78.8179 87.5269L88.331 71.0497C89.5786 68.8888 88.8382 66.1258 86.6774 64.8782C84.5165 63.6306 81.7534 64.371 80.5059 66.5318L74.2435 77.3786V68.78C74.2435 66.2848 72.2208 64.2621 69.7256 64.2621C67.2305 64.2621 65.2078 66.2848 65.2078 68.78Z" fill="black"/>
</svg>
